<?xml version="1.0" encoding="UTF-8"?>
<svg id="Layer_1" data-name="Layer 1" xmlns="http://www.w3.org/2000/svg" viewBox="0 0 996.01 996">
  <defs>
    <style>
      .cls-1 {
        fill: #fff;
      }
    </style>
  </defs>
  <rect width="996.01" height="996" rx="25.5" ry="25.5"/>
  <path class="cls-1" d="m261.47,119.77c162.81-231,50.54,696.75,81.66,710.12,45.47,8.9,37.32,83.91-10.24,80.62-151.04,72.32-38.54-753.16-71.42-790.74Zm465.02,584.96c73.98,125.96-89.64,249.83-210.19,197.93-110.07-7.32-135.23-250.32-18.34-148.98-8.09,94.28,155.4,105.71,161.2,15.32,6.15-38.57-254.44-217.43-240.8-259.16-32.12-188.6,282.62-231.66,320.39-57.12,24.35,53.6-46.37,108.95-76.54,48.97-.62-46.36-32.59-80.86-81.62-78.56-229.53,17.42,120.5,233.56,145.91,281.6Z"/>
</svg>