<?xml version="1.0" encoding="UTF-8"?>
<svg id="Layer_1" data-name="Layer 1" xmlns="http://www.w3.org/2000/svg" viewBox="0 0 840.33 190.9">
  <path d="m2.24,8.47c37.34-52.98,11.59,159.8,18.73,162.87,10.43,2.04,8.56,19.24-2.35,18.49C-16.02,206.41,9.78,17.09,2.24,8.47Z"/>
  <path d="m117.37,91.54c-3.76,24.56,13.35,88.02-22.7,95.94-62.18,20.07-51.79-60.07-51.48-95.95-1.47-44.03,75.82-43.63,74.18,0Zm-19.19,65.05v-65.05c.31-19.67-36.13-18.77-36.04,0,0,0,0,65.05,0,65.05.24,18.97,36.04,18.93,36.04,0Z"/>
  <path d="m186.4,156.83c19.44-31.81,27.96,23.53.7,29.01-63.76,26.04-56.38-56.76-54.98-94.07-4.16-52.86,97.91-33.96,67.39,8.67-17.09,5.35-9.04-18.49-22.7-21.53-9.81-4.26-26.26,1.14-25.98,12.87,0,0,0,65.05,0,65.05-.06,18.92,35.66,18.92,35.57,0Z"/>
  <path d="m294.04,170.87c19.61,10.55-6.57,27.19-17.32,14.51-9.11,4.85-23.89,5.97-33.7,2.11-36.02-8.06-18.61-71.32-22.47-95.71-.9-20.23,17.58-33.3,36.74-32.99,55.39-4.67,32.13,81.88,36.74,112.09Zm-28.78-1.17c18.06-2.25,6.69-67.65,9.83-77.93,0-18.94-35.75-18.72-35.81,0,4.26,17.48-15.24,93.51,25.98,77.92Z"/>
  <path d="m315.33,8.47c37.34-52.98,11.59,159.8,18.73,162.87,10.43,2.04,8.56,19.24-2.35,18.49-34.64,16.59-8.84-172.74-16.38-181.36Z"/>
  <path d="m490.37,142.09c30.75,59.8-96.21,61.1-64.83,6.08,17.12-5.53,9.14,18.82,22.94,21.53,10.11,3.96,26.65-.63,26.44-12.87-.55-12.76-62.73-48.87-55.23-65.05-4.34-57.03,106.89-27.31,64.59,9.6-13.9-.23-5.6-19.87-19.2-22.47-10.09-3.99-26.89.71-26.44,13.1-2.57,2.82,51.61,48.28,51.72,50.08Z"/>
  <path d="m582.8,91.54c-3.76,24.56,13.35,88.02-22.7,95.94-62.18,20.07-51.79-60.07-51.48-95.95-1.47-44.03,75.82-43.63,74.18,0Zm-19.19,65.05v-65.05c.31-19.67-36.13-18.77-36.04,0,0,0,0,65.05,0,65.05.24,18.97,36.04,18.93,36.04,0Z"/>
  <path d="m651.83,156.83c19.44-31.81,27.96,23.53.7,29.01-63.76,26.04-56.38-56.76-54.98-94.07-4.16-52.86,97.91-33.96,67.39,8.67-17.09,5.35-9.04-18.49-22.7-21.53-9.81-4.26-26.26,1.14-25.98,12.87,0,0,0,65.05,0,65.05-.06,18.92,35.66,18.92,35.57,0Z"/>
  <path d="m705.88,43.81c-7.39,26.89-31.56-9.32-12.63-18.02,11.76-3.65,13.69,9.58,12.63,18.02Zm0,136.43c-27.87,62.81-28.14-174.91,0-112.32,0,0,0,112.32,0,112.32Z"/>
  <path d="m793.4,170.87c19.61,10.55-6.57,27.19-17.32,14.51-9.11,4.85-23.89,5.97-33.7,2.11-36.02-8.06-18.61-71.32-22.47-95.71-.9-20.23,17.58-33.3,36.74-32.99,55.39-4.67,32.13,81.88,36.74,112.09Zm-28.78-1.17c18.06-2.25,6.69-67.65,9.83-77.93,0-18.94-35.75-18.72-35.81,0,4.26,17.48-15.24,93.51,25.98,77.92Z"/>
  <path d="m814.7,8.47c37.34-52.98,11.59,159.8,18.73,162.87,10.43,2.04,8.56,19.24-2.35,18.49-34.64,16.59-8.84-172.74-16.38-181.36Z"/>
</svg>