<?xml version="1.0" encoding="UTF-8"?>
<svg id="Layer_1" data-name="Layer 1" xmlns="http://www.w3.org/2000/svg" viewBox="0 0 1210.85 952">
  <defs>
    <style>
      .cls-1 {
        fill: #fff;
      }
    </style>
  </defs>
  <rect width="1210.85" height="952" rx="25.5" ry="25.5"/>
  <path class="cls-1" d="m287.3,61.02c92.72-131.56,28.78,396.81,46.51,404.43,25.9,5.07,21.25,47.79-5.83,45.91-86.02,41.19-21.95-428.93-40.67-450.34Zm285.89,206.28c-9.34,60.97,33.15,218.58-56.36,238.24-55.16,20.8-131.11-13.21-127.84-76.7,9.2-56-29.88-208.37,45.32-233.59,55.98-28.93,141.89,3.15,138.88,72.05Zm-47.65,161.54c-8.33-28,22-186.74-23.81-194.08-103.75-38.51-55.2,149.75-65.68,194.09.61,47.11,89.49,47.01,89.49,0Zm219.06.58c46.57-78.88,72.32,52.93,1.73,72.05-163.23,61.75-137.71-138.12-136.53-233.59-5.33-98.98,160.98-110.84,180.12-20.33,15.24,30.81-25.15,63.57-43.59,29.05,1.3-34.14-34.36-53.05-65.08-40.67-47.67,7.18-16.6,165.27-24.99,193.5-.15,46.98,88.57,46.97,88.33,0Zm267.29,34.86c48.7,26.21-16.31,67.52-43,36.02-22.63,12.05-59.32,14.81-83.67,5.23-36.32-12.12-56.22-40.55-55.78-76.12,9.44-56.55-30.72-210.2,47.06-234.17,173.99-69.12,131.99,176.9,135.4,269.03Zm-71.47-2.9c36.9,1.3,38.21-227.08.01-225.46-102.19-38.63-54.09,150.35-64.52,193.51-.74,29.66,40.1,42.31,64.51,31.95Zm124.35-400.37c92.72-131.56,51.17,498.39,52.61,540.09,1.04,30.22-49.94-19.7-50.33-57.52-1.44-138.05,16.45-461.17-2.28-482.57ZM259.13,791.16c42.14,71.74-51.05,142.28-119.7,112.72-62.68-4.17-77.02-142.56-10.45-84.84-4.61,53.69,88.5,60.2,91.8,8.73,3.5-21.96-144.91-123.83-137.14-147.6-18.29-107.41,160.95-131.93,182.46-32.53,13.87,30.53-26.41,62.05-43.59,27.89-.35-26.4-18.56-46.05-46.48-44.74-130.72,9.92,68.63,133.02,83.1,160.38Zm229.53-125.51c-9.34,60.97,33.15,218.58-56.36,238.24-55.16,20.8-131.11-13.21-127.84-76.7,9.2-56-29.88-208.37,45.32-233.59,55.98-28.93,141.89,3.15,138.88,72.05Zm-47.65,161.54c-8.33-28,22-186.74-23.81-194.08-103.75-38.51-55.2,149.75-65.68,194.09.61,47.11,89.49,47.01,89.49,0Zm219.06.58c46.57-78.88,72.32,52.93,1.73,72.05-163.23,61.75-137.71-138.12-136.53-233.59-5.33-98.98,160.98-110.84,180.12-20.33,15.24,30.81-25.15,63.57-43.59,29.05,1.3-34.14-34.36-53.05-65.08-40.67-47.67,7.18-16.6,165.27-24.99,193.5-.15,46.98,88.57,46.97,88.33,0Zm134.22-280.66c-9.64,47.32-58.88,15.95-46.48-22.66,9.51-47.39,58.63-15.67,46.48,22.66Zm0,338.77c1.56,30.62-48.13,30.4-46.49,0,13.95-14.19-38.81-380.38,44.73-287.06,5.19,8.09-.05,278.26,1.76,287.06Zm217.32-23.24c48.7,26.21-16.31,67.52-43,36.02-22.63,12.05-59.32,14.81-83.67,5.23-36.32-12.13-56.22-40.55-55.78-76.12,9.44-56.55-30.72-210.2,47.06-234.17,173.99-69.12,131.99,176.9,135.4,269.03Zm-71.47-2.9c36.9,1.3,38.21-227.08.01-225.46-102.19-38.63-54.09,150.35-64.52,193.51-.74,29.66,40.1,42.3,64.51,31.95Zm142.11-426.87c82.07-124.54,11.89,423.68,28.75,430.93,25.9,5.07,21.25,47.78-5.83,45.91-77.37,37.05-45.5-338.12-38.07-432.31,1.25-15.88,6.39-31.23,15.15-44.53Z"/>
</svg>